# AST/ASF file generated using VICON BodyLanguage
# -----------------------------------------------
:version 1.10
:name VICON
:units
  mass 1.0
  length 0.45
  angle deg
:documentation
   .ast/.asf automatically generated from VICON data using
   VICON BodyBuilder and BodyLanguage model FoxedUp or BRILLIANT.MOD
:root
   order TX TY TZ RX RY RZ
   axis XYZ
   position 0 0 0  
   orientation 0 0 0 
:bonedata
  begin
     id 1 
     name lhipjoint
     direction 0.61886 -0.69539 0.365302 
     length 2.20474 
     axis 0 0 0  XYZ
  end
  begin
     id 2 
     name lfemur
     direction 0.34202 -0.939693 0  
     length 6.65149  
     axis 0 0 20  XYZ
    dof rx ry rz
    limits (-160.0 20.0)
           (-70.0 70.0)
           (-60.0 70.0)
  end
  begin
     id 3 
     name ltibia
     direction 0.34202 -0.939693 0   
     length 6.35814   
     axis 0 0 20   XYZ
    dof rx
    limits (-10.0 170.0)
  end
  begin
     id 4 
     name lfoot
     direction 0.101224 -0.278109 0.955201   
     length 2.18766   
     axis -90 7.62852e-016 20   XYZ
    dof rx rz
    limits (-45.0 90.0)
           (-70.0 20.0)
  end
  begin
     id 5 
     name ltoes
     direction 1.53524e-011 -4.21877e-011 1   
     length 1.09206   
     axis -90 7.62852e-016 20   XYZ
    dof rx
    limits (-90.0 20.0)
  end
  begin
     id 6 
     name rhipjoint
     direction -0.600207 -0.708087 0.371972   
     length 2.1652  
     axis 0 0 0  XYZ 
  end
  begin
     id 7 
     name rfemur
     direction -0.34202 -0.939693 0   
     length 6.54691   
     axis 0 0 -20   XYZ
    dof rx ry rz
    limits (-160.0 20.0)
           (-70.0 70.0)
           (-70.0 60.0)
  end
  begin
     id 8 
     name rtibia
     direction -0.34202 -0.939693 0   
     length 6.37474   
     axis 0 0 -20   XYZ
    dof rx
    limits (-10.0 170.0)
 end
 begin
     id 9 
     name rfoot
     direction -0.111266 -0.3057 0.945604   
     length 2.00903  
     axis -90 -7.62852e-016 -20   XYZ
    dof rx rz
    limits (-45.0 90.0)
           (-20.0 70.0)
  end
  begin
     id 10 
     name rtoes
     direction -1.5362e-011 -4.21913e-011 1   
     length 1.00221   
     axis -90 -7.62852e-016 -20   XYZ
    dof rx
    limits (-90.0 20.0)
  end
  begin
     id 11 
     name lowerback
     direction -0.0224561 0.999731 -0.00577314   
     length 2.10409   
     axis 0 0 0   XYZ
    dof rx ry rz
    limits (-20.0 45.0)
           (-30.0 30.0)
           (-30.0 30.0)
  end
  begin
     id 12 
     name upperback
     direction 0.0213126 0.999185 -0.0342817   
     length 2.09783   
     axis 0 0 0   XYZ
    dof rx ry rz
    limits (-20.0 45.0)
           (-30.0 30.0)
           (-30.0 30.0)
  end
  begin
     id 13 
     name thorax
     direction 0.0312356 0.999036 -0.0308451   
     length 2.09788   
     axis 0 0 0   XYZ
    dof rx ry rz
    limits (-20.0 45.0)
           (-30.0 30.0)
           (-30.0 30.0)
  end
  begin
     id 14 
     name lowerneck
     direction -0.0114419 0.996481 0.0830329   
     length 1.38575   
     axis 0 0 0   XYZ
    dof rx ry rz
    limits (-20.0 45.0)
           (-30.0 30.0)
           (-30.0 30.0)
  end
  begin
     id 15 
     name upperneck
     direction -0.0075675 0.996187 -0.0869092   
     length 1.39401   
     axis 0 0 0   XYZ
    dof rx ry rz
    limits (-20.0 45.0)
           (-30.0 30.0)
           (-30.0 30.0)
  end
  begin
     id 16
     name head
     direction -0.00222073 0.999264 -0.0382974  
     length 1.3964  
     axis 0 0 0   XYZ
    dof rx ry rz
    limits (-20.0 45.0)
           (-30.0 30.0)
           (-30.0 30.0)
  end
  begin
     id 17 
     name lclavicle
     direction 0.965962 0.222138 0.132556  
     length 2.81514  
     axis 0 0 0   XYZ
    dof ry rz
    limits (-20.0 10.0)
           (0.0 20.0)
  end
  begin
     id 18 
     name lhumerus
     direction 1 -4.48972e-011 7.03471e-018   
     length 4.47366   
     axis 180 -30 -90   XYZ
    dof rx ry rz
    limits (-60.0 90.0)
           (-90.0 90.0)
           (-90.0 90.0)
  end
  begin
     id 19
     name lradius
     direction 1 -4.48951e-011 -6.22192e-028   
     length 3.19948   
     axis 180 -30 -90   XYZ
    dof rx
    limits (-10.0 170.0)
  end
  begin
     id 20
     name lwrist
     direction 1 -4.48967e-011 -1.24264e-027   
     length 1.59974   
     axis 1.40095e-015 90 90   XYZ
    dof ry
    limits (-180.0 0.0)
 end
  begin
     id 21 
     name lhand
     direction 1 -4.4897e-011 -2.48528e-027   
     length 0.492667   
     axis 1.58582e-015 90 90   XYZ
    dof rx rz
    limits (-90.0 90.0)
           (-45.0 45.0)
  end
  begin
     id 22 
     name lfingers
     direction 1 -4.48996e-011 -4.97056e-027   
     length 0.397201   
     axis 3.17164e-015 90 90   XYZ
    dof rx
    limits (0.0 90.0)
  end
  begin
     id 23
     name lthumb
     direction 0.707107 -6.34981e-011 0.707107   
     length 0.570303   
     axis -90 45 2.85299e-015   XYZ
    dof rx rz
    limits (-45.0 45.0)
           (-45.0 45.0)
  end
  begin
     id 24 
     name rclavicle
     direction -0.961164 0.229034 0.153972   
     length 3.09348  
     axis 0 0 0   XYZ 
    dof ry rz
    limits (-10.0 20.0)
           (-20.0 0.0)
  end
  begin
     id 25 
     name rhumerus
     direction -1 -4.48971e-011 -9.06263e-028  
     length 4.3269   
     axis 180 30 90   XYZ
    dof rx ry rz
    limits (-90.0 60.0)
           (-90.0 90.0)
           (-90.0 90.0)
  end
  begin
     id 26 
     name rradius
     direction -1 -4.48953e-011 1.44659e-027   
     length 3.1896   
     axis 180 30 90   XYZ
    dof rx
    limits (-10.0 170.0)
  end
  begin
     id 27 
     name rwrist
     direction -1 -4.48988e-011 -1.24264e-027   
     length 1.5948   
     axis 1.40095e-015 -90 -90   XYZ
    dof ry
    limits (-180.0 0.0)
  end
  begin
     id 28
     name rhand
     direction -1 -4.49033e-011 -2.48528e-027   
     length 0.464496   
     axis 1.58582e-015 -90 -90   XYZ
    dof rx rz
    limits (-90.0 90.0)
           (-45.0 45.0)
  end
  begin
     id 29
     name rfingers
     direction -1 -4.48905e-011 -4.97056e-027   
     length 0.374489   
     axis 3.17164e-015 -90 -90   XYZ
    dof rx
    limits (0.0 90.0)
  end
  begin
     id 30
     name rthumb
     direction -0.707107 -6.34909e-011 0.707107   
     length 0.537693   
     axis -90 -45 -2.85299e-015   XYZ
    dof rx rz
    limits (-45.0 45.0)
           (-45.0 45.0)
  end
:hierarchy
  begin
    root lhipjoint rhipjoint lowerback
    lhipjoint lfemur
    lfemur ltibia
    ltibia lfoot
    lfoot ltoes
    rhipjoint rfemur
    rfemur rtibia
    rtibia rfoot
    rfoot rtoes
    lowerback upperback
    upperback thorax
    thorax lowerneck lclavicle rclavicle
    lowerneck upperneck
    upperneck head
    lclavicle lhumerus
    lhumerus lradius
    lradius lwrist
    lwrist lhand lthumb
    lhand lfingers
    rclavicle rhumerus
    rhumerus rradius
    rradius rwrist
    rwrist rhand rthumb
    rhand rfingers
  end

#!OML:ASF G:\acrobat\cartwheel_test 2\Patient 1\Session 2\acrobat4.ASF
:FULLY-SPECIFIED
:DEGREES
97
root 12.4597 16.0373 6.19004 -53.6244 30.0765 -229.649
lowerback 14.0773 -0.362881 -4.52478
upperback -1.71106 -1.34313 -0.507637
thorax -9.69629 -0.421476 2.31137
lowerneck -29.4741 -5.20627 -1.40049
upperneck 16.5185 -5.5982 -5.00242
head 9.90684 -3.36568 -2.50315
rclavicle -5.725e-014 4.13472e-014
rhumerus 89.2155 -52.8766 -73.7258
rradius 22.7105
rwrist 24.2314
rhand -43.0805 95.3685
rfingers 7.12502
rthumb -15.9358 -235.267
lclavicle -5.725e-014 4.13472e-014
lhumerus -9.58375 7.67249 -28.164
lradius 55.0005
lwrist 63.4462
lhand -35.4556 11.551
lfingers 7.12502
lthumb -8.58451 41.3565
rfemur -30.3926 -14.1458 -9.53859
rtibia 47.7058
rfoot -4.8271 -7.99527
rtoes -9.3009
lfemur -3.17182 -55.6124 24.3081
ltibia -5.725e-014
lfoot -87.919 64.8508
ltoes -4.75576
98
root 12.5324 16.0963 6.11809 -53.5001 31.2602 -230.273
lowerback 14.2815 -0.265048 -5.27015
upperback -1.56825 -1.45267 -1.41576
thorax -9.66098 -0.471309 1.77844
lowerneck -28.7592 -5.28544 -1.90478
upperneck 16.7085 -5.44509 -5.46847
head 9.8686 -3.39964 -2.5518
rclavicle -5.88403e-014 -2.54444e-014
rhumerus 86.2286 -55.8666 -71.4921
rradius 23.1718
rwrist 22.1624
rhand -42.8943 94.9288
rfingers 7.12502
rthumb -15.7565 -235.693
lclavicle -5.88403e-014 -2.54444e-014
lhumerus -11.6186 5.11134 -27.4124
lradius 54.1165
lwrist 62.5704
lhand -34.6433 12.0334
lfingers 7.12502
lthumb -7.80052 41.8695
rfemur -24.1433 -10.2224 -8.20289
rtibia 41.7259
rfoot -1.09201 -8.63457
rtoes -9.78892
lfemur -6.26325 -55.6935 30.8302
ltibia 1.59028e-014
lfoot -93.2693 62.0133
ltoes 2.55082
99
root 12.5966 16.1293 6.07524 -53.1948 32.965 -231.67
lowerback 13.4887 -0.473053 -6.01778
upperback -1.29063 -1.89765 -2.39233
thorax -8.88647 -0.712817 1.22925
lowerneck -28.4674 -5.32454 -2.40779
upperneck 16.8023 -5.25944 -5.73512
head 9.87049 -3.38976 -2.53465
rclavicle 5.40694e-014 2.8625e-014
rhumerus 82.2366 -59.0955 -68.1334
rradius 23.624
rwrist 19.7085
rhand -42.8251 94.6508
rfingers 7.12502
rthumb -15.69 -235.965
lclavicle 5.40694e-014 2.8625e-014
lhumerus -13.2939 4.07773 -26.1897
lradius 52.6163
lwrist 61.2986
lhand -33.7988 12.6571
lfingers 7.12502
lthumb -6.98539 42.5218
rfemur -18.1348 -6.45739 -6.72069
rtibia 35.4121
rfoot 3.54539 -8.08114
rtoes 9.57453
lfemur -11.2404 -54.8548 39.0274
ltibia -3.57812e-014
lfoot -96.1687 60.7266
ltoes 10.9292
100
root 12.6574 16.1733 6.02226 -52.9368 34.7396 -232.417
lowerback 13.3832 -0.479978 -6.81629
upperback -1.06121 -2.15228 -3.6106
thorax -8.58987 -0.85706 0.420514
lowerneck -27.8277 -5.47591 -3.08807
upperneck 16.7476 -5.22085 -5.87057
head 9.7663 -3.43819 -2.44908
rclavicle 2.70347e-014 1.27222e-014
rhumerus 75.8697 -62.2063 -62.481
rradius 24.1111
rwrist 16.9601
rhand -42.5361 94.2778
rfingers 7.12502
rthumb -15.4115 -236.317
lclavicle 2.70347e-014 1.27222e-014
lhumerus -14.7378 3.06978 -24.6875
lradius 51.7841
lwrist 60.9112
lhand -33.5447 14.1106
lfingers 7.12502
lthumb -6.74005 43.9833
rfemur -12.1581 -2.50096 -5.55182
rtibia 28.7886
rfoot 6.99623 -9.15681
rtoes 11.8733
lfemur -18.2976 -51.5176 45.6082
ltibia 6.96378
lfoot -95.9454 55.2193
ltoes 12.7348
101
root 12.7137 16.1875 5.97398 -52.5736 36.9721 -233.255
lowerback 13.0843 -0.561089 -8.00093
upperback -0.845046 -2.54536 -4.81373
thorax -8.18411 -1.06083 -0.135328
lowerneck -27.0324 -5.60748 -3.51908
upperneck 16.3949 -5.17622 -6.58953
head 9.50887 -3.54016 -2.59191
rclavicle 1.1291e-013 1.27222e-014
rhumerus 63.84 -64.5852 -50.6391
rradius 24.8797
rwrist 12.3115
rhand -41.9534 94.5232
rfingers 7.12502
rthumb -14.8502 -236.029
lclavicle 1.1291e-013 1.27222e-014
lhumerus -15.9968 1.51585 -23.1036
lradius 51.3009
lwrist 62.5104
lhand -34.1724 16.683
lfingers 7.12502
lthumb -7.34595 46.5354
rfemur -6.21166 1.01208 -4.48073
rtibia 22.039
rfoot 11.4154 -9.5792
rtoes 3.5091
lfemur -23.2571 -49.1248 50.808
ltibia 11.0564
lfoot -97.8425 50.6419
ltoes 14.6679
102
root 12.7642 16.183 5.93093 -52.1494 39.4249 -234.199
lowerback 12.5906 -0.734976 -9.22829
upperback -0.566071 -3.0247 -6.0059
thorax -7.59688 -1.32194 -0.651051
lowerneck -26.2151 -5.62868 -3.69785
upperneck 15.8384 -5.02253 -7.72618
head 9.1649 -3.61984 -2.89256
rclavicle -1.11319e-014 -7.95139e-014
rhumerus 52.3135 -65.8747 -39.637
rradius 25.512
rwrist 8.71792
rhand -41.6254 94.8482
rfingers 7.12502
rthumb -14.5342 -235.681
lclavicle -1.11319e-014 -7.95139e-014
lhumerus -16.9069 0.511588 -21.0524
lradius 50.698
lwrist 64.0907
lhand -34.8452 19.642
lfingers 7.12502
lthumb -7.99538 49.4708
rfemur -0.134264 4.0374 -3.15155
rtibia 14.6721
rfoot 16.3023 -10.3555
rtoes -6.98168
lfemur -162.444 52.2522 -119.941
ltibia 13.2276
lfoot -110.522 119.245
ltoes 19.8642
